<?xml version="1.0" standalone="no"?><!DOCTYPE svg PUBLIC "-//W3C//DTD SVG 1.1//EN" "http://www.w3.org/Graphics/SVG/1.1/DTD/svg11.dtd"><svg class="icon" width="128px" height="128.00px" viewBox="0 0 1024 1024" version="1.1" xmlns="http://www.w3.org/2000/svg"><path d="M512 27.978142a481.224044 481.224044 0 1 0 484.021858 481.224044A481.224044 481.224044 0 0 0 512 27.978142z m0 811.36612A327.344262 327.344262 0 1 1 839.344262 512 327.344262 327.344262 0 0 1 512 839.344262z" fill="#cdcdcd" /><path d="M512 1024a512 512 0 1 1 512-512 514.797814 514.797814 0 0 1-512 512z m0-968.043716a453.245902 453.245902 0 1 0 453.245902 456.043716A453.245902 453.245902 0 0 0 512 55.956284z" fill="#2c2c2c" /><path d="M254.601093 741.420765a27.978142 27.978142 0 0 1-25.180328-11.191257l-27.978142-39.169399a153.879781 153.879781 0 0 1-16.786885-39.169399 30.775956 30.775956 0 0 1 53.15847-25.180327l13.989071 33.57377 19.584699 33.57377a27.978142 27.978142 0 0 1-5.595628 41.967214l-13.989071 5.595628z" fill="#2c2c2c" /><path d="M512 870.120219a349.726776 349.726776 0 0 1-181.857923-50.360656 30.775956 30.775956 0 0 1 33.57377-53.15847 296.568306 296.568306 0 0 0 447.650273-254.601093 296.568306 296.568306 0 0 0-593.136612 0 27.978142 27.978142 0 0 1-30.775956 30.775956 27.978142 27.978142 0 0 1-30.775956-30.775956 355.322404 355.322404 0 1 1 355.322404 358.120219z" fill="#2c2c2c" /><path d="M671.47541 576.349727h-179.060109a27.978142 27.978142 0 0 1-30.775957-30.775957v-179.060109a30.775956 30.775956 0 0 1 58.754099 0v151.081967H671.47541a27.978142 27.978142 0 0 1 30.775956 30.775957 30.775956 30.775956 0 0 1-30.775956 27.978142z" fill="#e0620d" /></svg>